<svg width="1200" height="900" viewBox="0 0 1200 900" fill="none" xmlns="http://www.w3.org/2000/svg">
  <defs>
    <linearGradient id="bg" x1="80" y1="60" x2="1120" y2="840" gradientUnits="userSpaceOnUse">
      <stop stop-color="#16274A" />
      <stop offset="1" stop-color="#060A17" />
    </linearGradient>
    <linearGradient id="frame" x1="0" y1="0" x2="0" y2="1">
      <stop stop-color="#101D33" />
      <stop offset="1" stop-color="#0B1426" />
    </linearGradient>
    <linearGradient id="pill" x1="0" y1="0" x2="1" y2="1">
      <stop stop-color="#7AA7FF" />
      <stop offset="1" stop-color="#7DF8D5" />
    </linearGradient>
    <filter id="shadow" x="238" y="104" width="724" height="708" filterUnits="userSpaceOnUse" color-interpolation-filters="sRGB">
      <feDropShadow dx="0" dy="30" stdDeviation="52" flood-color="#01040B" flood-opacity="0.7" />
    </filter>
  </defs>
  <rect width="1200" height="900" rx="48" fill="url(#bg)" />
  <g opacity="0.48">
    <circle cx="250" cy="240" r="190" fill="#1B315A" />
    <circle cx="950" cy="660" r="220" fill="#14223F" />
    <circle cx="920" cy="210" r="150" fill="#1E3865" />
  </g>
  <g filter="url(#shadow)">
    <rect x="298" y="160" width="604" height="560" rx="50" fill="url(#frame)" stroke="rgba(255,255,255,0.1)" stroke-width="2" />
    <rect x="326" y="198" width="548" height="492" rx="36" fill="#050911" />
    <rect x="326" y="198" width="548" height="116" rx="36" fill="#101A2F" />
    <text x="356" y="258" fill="#F7F9FF" font-size="24" font-family="'Inter', 'Segoe UI', sans-serif" font-weight="700">Profile intel</text>
    <text x="356" y="288" fill="#7F8CB2" font-size="15" font-family="'Inter', 'Segoe UI', sans-serif">Insights pulled from their bio in seconds.</text>
    <rect x="356" y="330" width="232" height="36" rx="14" fill="#121F36" />
    <text x="372" y="355" fill="#9AA4C0" font-size="15" font-family="'Inter', 'Segoe UI', sans-serif">@jess_onfilm • Brooklyn</text>
    <rect x="356" y="378" width="468" height="98" rx="22" fill="#101B30" />
    <text x="384" y="410" fill="#7DF8D5" font-size="14" font-family="'Inter', 'Segoe UI', sans-serif" font-weight="600">HIGHLIGHTS</text>
    <text x="384" y="438" fill="#F7F9FF" font-size="18" font-family="'Inter', 'Segoe UI', sans-serif">Filmmaker · Loves rooftop sunsets · Travelling next month</text>
    <rect x="356" y="488" width="468" height="132" rx="26" fill="#0E172B" />
    <text x="384" y="522" fill="#7AA7FF" font-size="14" font-family="'Inter', 'Segoe UI', sans-serif" font-weight="600">ICEBREAKER IDEA</text>
    <text x="384" y="552" fill="#F7F9FF" font-size="20" font-family="'Inter', 'Segoe UI', sans-serif">“Let’s plan a film-worthy sunset before you jet off. I’ll bring the skyline playlist.”</text>
    <rect x="356" y="636" width="188" height="48" rx="16" fill="#131E34" />
    <text x="384" y="667" fill="#9AA4C0" font-size="16" font-family="'Inter', 'Segoe UI', sans-serif">Copy opener</text>
    <rect x="554" y="636" width="188" height="48" rx="16" fill="url(#pill)" />
    <text x="584" y="667" fill="#061126" font-size="16" font-family="'Inter', 'Segoe UI', sans-serif" font-weight="600">Add to chat</text>
  </g>
</svg>
